<svg width="229" height="30" viewBox="0 0 229 30" fill="none" xmlns="http://www.w3.org/2000/svg">
<path d="M15 2L19.0174 10.5567L28 11.9436L21.5 18.6004L23.041 28L15.0077 23.5575L6.96515 27.9969L8.50616 18.5973L2 11.9374L10.9826 10.5506L15 2Z" fill="#FFB114" stroke="#FFB114" stroke-width="2.5" stroke-linecap="round" stroke-linejoin="round"/>
<path d="M65 2L69.0174 10.5567L78 11.9436L71.5 18.6004L73.041 28L65.0077 23.5575L56.9651 27.9969L58.5062 18.5973L52 11.9374L60.9826 10.5506L65 2Z" fill="#FFB114" stroke="#FFB114" stroke-width="2.5" stroke-linecap="round" stroke-linejoin="round"/>
<path d="M115 2L119.017 10.5567L128 11.9436L121.5 18.6004L123.041 28L115.008 23.5575L106.965 27.9969L108.506 18.5973L102 11.9374L110.983 10.5506L115 2Z" fill="#FFB114" stroke="#FFB114" stroke-width="2.5" stroke-linecap="round" stroke-linejoin="round"/>
<path d="M165 2L169.017 10.5567L178 11.9436L171.5 18.6004L173.041 28L165.008 23.5575L156.965 27.9969L158.506 18.5973L152 11.9374L160.983 10.5506L165 2Z" fill="#FFB114" stroke="#FFB114" stroke-width="2.5" stroke-linecap="round" stroke-linejoin="round"/>
<path d="M215 2L219.017 10.5567L228 11.9436L221.5 18.6004L223.041 28L215.008 23.5575L206.965 27.9969L208.506 18.5973L202 11.9374L210.983 10.5506L215 2Z" stroke="#FFB114" stroke-width="2" stroke-linecap="round" stroke-linejoin="round"/>
<path d="M215 2L215.008 10.5506V18.5973V23.5575L206.965 27.9969L208.506 18.5973L202 11.9374L210.983 10.5506L215 2Z" fill="#FFB114" stroke="#FFB114" stroke-width="2.5" stroke-linecap="round" stroke-linejoin="round"/>
</svg>
