<svg width="22" height="22" viewBox="0 0 22 22" fill="none" xmlns="http://www.w3.org/2000/svg">
<g clip-path="url(#clip0_484_507)">
<path d="M10.9487 0C4.90196 0 0 4.90196 0 10.9487C0 16.0832 3.53512 20.3918 8.30395 21.5751V14.2946H6.04632V10.9487H8.30395V9.50699C8.30395 5.78049 9.99049 4.05322 13.6491 4.05322C14.3428 4.05322 15.5397 4.18942 16.0294 4.32518V7.35798C15.771 7.33082 15.3221 7.31725 14.7646 7.31725C12.9694 7.31725 12.2757 7.99738 12.2757 9.76538V10.9487H15.852L15.2375 14.2946H12.2757V21.8173C17.6971 21.1626 21.8979 16.5466 21.8979 10.9487C21.8974 4.90196 16.9955 0 10.9487 0Z" fill="#6B232A"/>
</g>
<defs>
<clipPath id="clip0_484_507">
<rect width="21.8974" height="21.8974" fill="white"/>
</clipPath>
</defs>
</svg>
