<svg width="22" height="22" viewBox="0 0 22 22" fill="none" xmlns="http://www.w3.org/2000/svg">
<g clip-path="url(#clip0_484_511)">
<path d="M11.0513 1.97162C13.9766 1.97162 14.323 1.98445 15.4735 2.03578C16.5427 2.08282 17.1201 2.26245 17.505 2.41214C18.014 2.60887 18.3818 2.84838 18.7624 3.22902C19.1473 3.61393 19.3826 3.97746 19.5793 4.48641C19.729 4.87132 19.9086 5.45297 19.9557 6.51791C20.007 7.67265 20.0198 8.01908 20.0198 10.9402C20.0198 13.8655 20.007 14.2119 19.9557 15.3624C19.9086 16.4316 19.729 17.009 19.5793 17.3939C19.3826 17.9029 19.1431 18.2707 18.7624 18.6513C18.3775 19.0362 18.014 19.2715 17.505 19.4682C17.1201 19.6179 16.5385 19.7975 15.4735 19.8445C14.3188 19.8959 13.9723 19.9087 11.0513 19.9087C8.1259 19.9087 7.77948 19.8959 6.629 19.8445C5.55979 19.7975 4.98242 19.6179 4.5975 19.4682C4.08856 19.2715 3.72075 19.0319 3.34011 18.6513C2.95519 18.2664 2.71997 17.9029 2.52323 17.3939C2.37354 17.009 2.19392 16.4274 2.14687 15.3624C2.09555 14.2077 2.08272 13.8612 2.08272 10.9402C2.08272 8.0148 2.09555 7.66838 2.14687 6.51791C2.19392 5.4487 2.37354 4.87132 2.52323 4.48641C2.71997 3.97746 2.95947 3.60965 3.34011 3.22902C3.72503 2.8441 4.08856 2.60887 4.5975 2.41214C4.98242 2.26245 5.56407 2.08282 6.629 2.03578C7.77948 1.98445 8.1259 1.97162 11.0513 1.97162ZM11.0513 0C8.07886 0 7.70677 0.0128305 6.53919 0.0641526C5.37589 0.115475 4.57612 0.303656 3.88327 0.573097C3.16048 0.855368 2.54889 1.22745 1.94158 1.83904C1.32999 2.44635 0.957908 3.05794 0.675636 3.77645C0.406195 4.47358 0.218014 5.26907 0.166692 6.43237C0.11537 7.60422 0.102539 7.97631 0.102539 10.9487C0.102539 13.9211 0.11537 14.2932 0.166692 15.4608C0.218014 16.6241 0.406195 17.4239 0.675636 18.1167C0.957908 18.8395 1.32999 19.4511 1.94158 20.0584C2.54889 20.6657 3.16048 21.0421 3.87899 21.3201C4.57612 21.5895 5.37161 21.7777 6.53491 21.829C7.70249 21.8803 8.07458 21.8932 11.047 21.8932C14.0194 21.8932 14.3915 21.8803 15.5591 21.829C16.7224 21.7777 17.5221 21.5895 18.215 21.3201C18.9335 21.0421 19.5451 20.6657 20.1524 20.0584C20.7597 19.4511 21.1361 18.8395 21.4141 18.121C21.6835 17.4239 21.8717 16.6284 21.923 15.4651C21.9743 14.2975 21.9872 13.9254 21.9872 10.953C21.9872 7.98059 21.9743 7.6085 21.923 6.44092C21.8717 5.27762 21.6835 4.47785 21.4141 3.78501C21.1446 3.05794 20.7725 2.44635 20.1609 1.83904C19.5536 1.23173 18.942 0.855368 18.2235 0.577374C17.5264 0.307933 16.7309 0.119752 15.5676 0.0684295C14.3958 0.0128305 14.0237 0 11.0513 0Z" fill="#6B232A"/>
<path d="M11.0513 5.32422C7.94631 5.32422 5.42725 7.84328 5.42725 10.9483C5.42725 14.0533 7.94631 16.5723 11.0513 16.5723C14.1563 16.5723 16.6753 14.0533 16.6753 10.9483C16.6753 7.84328 14.1563 5.32422 11.0513 5.32422ZM11.0513 14.5964C9.0369 14.5964 7.40315 12.9627 7.40315 10.9483C7.40315 8.93387 9.0369 7.30012 11.0513 7.30012C13.0657 7.30012 14.6994 8.93387 14.6994 10.9483C14.6994 12.9627 13.0657 14.5964 11.0513 14.5964Z" fill="#6B232A"/>
<path d="M18.2107 5.10205C18.2107 5.82912 17.6205 6.41505 16.8977 6.41505C16.1706 6.41505 15.5847 5.82484 15.5847 5.10205C15.5847 4.37499 16.1749 3.78906 16.8977 3.78906C17.6205 3.78906 18.2107 4.37927 18.2107 5.10205Z" fill="#6B232A"/>
</g>
<defs>
<clipPath id="clip0_484_511">
<rect width="21.8974" height="21.8974" fill="white" transform="translate(0.102539)"/>
</clipPath>
</defs>
</svg>
